<svg width="22" height="24" viewBox="0 0 22 24" fill="none" xmlns="http://www.w3.org/2000/svg">
<path d="M2.30887 13.0409L1.39307 13.572V13.5722C0.759595 13.9379 0.298188 14.541 0.110946 15.248C-0.0758933 15.95 0.0228405 16.6975 0.385686 17.327L0.999378 18.3894L0.999173 18.3892C1.36324 19.0186 1.96181 19.4779 2.66394 19.6668C3.36592 19.8557 4.11431 19.7584 4.74496 19.3965L5.07448 19.2318C5.36067 19.0787 5.70429 19.0787 5.99028 19.2318C6.3331 19.3871 6.68472 19.5216 7.04346 19.6347C7.22232 19.6972 7.37727 19.8136 7.48705 19.9677C7.59703 20.1218 7.65631 20.3062 7.65713 20.4955V21.0634C7.65713 21.7922 7.94658 22.4909 8.46172 23.0062C8.97707 23.5214 9.67576 23.8108 10.4045 23.8108H11.6317C12.3604 23.8108 13.0591 23.5214 13.5745 23.0062C14.0896 22.4909 14.3791 21.7922 14.3791 21.0634V20.4589C14.3799 20.2696 14.4392 20.0852 14.5491 19.9311C14.6591 19.777 14.8141 19.6607 14.9927 19.5981C15.3445 19.4963 15.69 19.3741 16.0275 19.2318C16.3147 19.0836 16.6561 19.0836 16.9433 19.2318L17.273 19.4242C17.9037 19.786 18.6518 19.8831 19.354 19.6942C20.056 19.5055 20.6547 19.046 21.0186 18.4168L21.6323 17.3544C21.9952 16.725 22.0939 15.9776 21.9071 15.2754C21.7198 14.5685 21.2583 13.9653 20.6249 13.5996L19.7091 13.0686C19.433 12.9091 19.2596 12.6178 19.2512 12.2991V11.5665C19.2596 11.248 19.433 10.9565 19.7091 10.7973L20.6249 10.2662C21.2583 9.9005 21.7198 9.29723 21.9071 8.59018C22.0939 7.88821 21.9952 7.14086 21.6323 6.51142L21.0186 5.44904C20.6548 4.81965 20.056 4.36028 19.354 4.17142C18.6518 3.98274 17.9037 4.07984 17.273 4.44166L16.9251 4.57903C16.6377 4.72723 16.2965 4.72723 16.0093 4.57903C15.6665 4.42367 15.3148 4.28916 14.9561 4.17612C14.7772 4.11357 14.6223 3.99725 14.5125 3.84312C14.4025 3.68899 14.3433 3.5046 14.3424 3.3153V2.7474C14.3424 2.01863 14.053 1.31996 13.5378 0.804596C13.0225 0.289456 12.3238 0 11.595 0H10.3861C9.65752 0 8.95863 0.289456 8.44348 0.804596C7.92814 1.31994 7.63868 2.01863 7.63868 2.7474V3.35188C7.63806 3.54118 7.57858 3.72556 7.4688 3.8797C7.35882 4.03383 7.20387 4.15015 7.02521 4.2127C6.66706 4.31368 6.31549 4.43613 5.97204 4.57902C5.68483 4.72722 5.34343 4.72722 5.05624 4.57902L4.72651 4.38666C4.09586 4.02484 3.34767 3.92774 2.64549 4.11662C1.94352 4.3053 1.34479 4.76485 0.980879 5.39403L0.367187 6.45641C0.00434133 7.0858 -0.0943925 7.8332 0.0924466 8.53539C0.279694 9.24228 0.741252 9.84551 1.37457 10.2112L2.29037 10.7423C2.42999 10.8163 2.54651 10.9271 2.62725 11.0628C2.708 11.1985 2.74991 11.3537 2.74827 11.5117V12.2443C2.75686 12.4048 2.72006 12.5647 2.64238 12.7055C2.5647 12.8463 2.44921 12.9625 2.30877 13.041L2.30887 13.0409ZM3.22467 9.17615L2.30887 8.64509C2.09934 8.52428 1.94623 8.32558 1.88266 8.09216C1.81929 7.85892 1.85056 7.60993 1.96994 7.3996L2.58364 6.33722V6.33743C2.70465 6.13035 2.90192 5.97928 3.13312 5.91612C3.368 5.85295 3.61841 5.88586 3.82918 6.0077L4.15891 6.19086H4.1587C4.95226 6.64671 5.92039 6.67758 6.74137 6.27324C7.00957 6.1557 7.28493 6.05471 7.56559 5.97111C8.11957 5.79244 8.60259 5.44266 8.94499 4.97189C9.2874 4.50111 9.4714 3.93384 9.47035 3.35186V2.74738C9.47035 2.50453 9.56684 2.27149 9.73875 2.09978C9.91046 1.92807 10.1433 1.83158 10.3861 1.83158H11.6135C11.8563 1.83158 12.0892 1.92807 12.2609 2.09978C12.4328 2.27149 12.5293 2.50453 12.5293 2.74738V3.35186C12.5283 3.93384 12.7122 4.50112 13.0546 4.97189C13.397 5.44267 13.8801 5.79245 14.434 5.97111C14.7147 6.05472 14.9901 6.1557 15.2583 6.27324C16.0792 6.67758 17.0474 6.64671 17.8409 6.19086L18.1706 6.0077H18.1704C18.3812 5.88586 18.6316 5.85295 18.8665 5.91612C19.0977 5.97928 19.295 6.13035 19.416 6.33743L20.0297 7.39981V7.3996C20.1491 7.60995 20.1803 7.85893 20.117 8.09216C20.0534 8.32561 19.9003 8.5243 19.6908 8.64509L18.775 9.17615V9.17636C18.3561 9.42023 18.0092 9.77079 17.7696 10.1921C17.5298 10.6136 17.406 11.091 17.4104 11.5757V12.2351C17.4027 12.7229 17.5251 13.2041 17.7649 13.6291C18.0047 14.0539 18.3534 14.4073 18.775 14.6528L19.6908 15.1839C19.9003 15.3047 20.0534 15.5036 20.117 15.7368C20.1803 15.9702 20.1491 16.2192 20.0297 16.4293L19.416 17.4917C19.295 17.6986 19.0977 17.8499 18.8665 17.913C18.6316 17.9762 18.3812 17.9431 18.1705 17.8215L17.8407 17.6383H17.8409C17.0474 17.1824 16.0792 17.1516 15.2583 17.5559C14.9901 17.6735 14.7147 17.7744 14.434 17.858C13.8801 18.0365 13.397 18.3865 13.0546 18.8571C12.7122 19.3278 12.5282 19.8951 12.5293 20.4773V21.0634C12.5293 21.3062 12.4328 21.5392 12.2609 21.711C12.0892 21.8827 11.8563 21.9792 11.6135 21.9792H10.3862C10.1433 21.9792 9.91047 21.8827 9.73876 21.711C9.56684 21.5392 9.47036 21.3062 9.47036 21.0634V20.4589C9.47138 19.8769 9.2874 19.3096 8.945 18.8388C8.6026 18.3681 8.11957 18.0183 7.56559 17.8396C7.28492 17.756 7.00957 17.655 6.74137 17.5375C6.35706 17.358 5.9384 17.2642 5.51425 17.2628C5.03918 17.2626 4.57207 17.3856 4.15876 17.6199L3.82903 17.803H3.82924C3.61848 17.9249 3.36806 17.9578 3.13317 17.8946C2.90197 17.8315 2.70471 17.6804 2.58369 17.4733L1.97 16.4109V16.4111C1.85062 16.2008 1.81934 15.9518 1.88271 15.7186C1.94629 15.4851 2.0994 15.2864 2.30893 15.1656L3.22473 14.6346V14.6344C3.64358 14.3905 3.99049 14.0399 4.23007 13.6186C4.46985 13.1971 4.59373 12.7198 4.58923 12.2351V11.5756C4.597 11.0879 4.47456 10.6066 4.23477 10.1816C3.99499 9.75686 3.64625 9.40343 3.22472 9.15794L3.22467 9.17615Z" fill="#A6A9B3"/>
<path d="M10.9995 16.4843C11.6221 16.4843 13.7469 16.3928 14.7269 15.2388C15.8624 13.9293 15.8624 9.88111 14.7269 8.57177C13.7469 7.41781 11.6222 7.32623 10.9995 7.32623C10.3768 7.32623 8.25208 7.41781 7.27207 8.57177C6.13652 9.88127 6.13652 13.9295 7.27207 15.2388C8.25208 16.3928 10.3768 16.4843 10.9995 16.4843ZM8.65498 9.77179C9.34183 9.30162 10.1705 9.08473 10.9995 9.1581C11.8284 9.08471 12.6571 9.3016 13.344 9.77179C13.875 10.3944 13.875 13.435 13.344 14.0395V14.0393C12.6571 14.5094 11.8284 14.7263 10.9995 14.653C10.1705 14.7263 9.34183 14.5095 8.65498 14.0393C8.12392 13.4166 8.12392 10.3945 8.65498 9.77179Z" fill="#A6A9B3"/>
</svg>
