<svg width="26" height="24" viewBox="0 0 26 24" fill="none" xmlns="http://www.w3.org/2000/svg">
<path d="M2.53659 0.585388C1.14229 0.585388 0 1.72768 0 3.12197V21.1951C0 22.4138 1.00087 23.4147 2.21951 23.4147H23.7805C24.9991 23.4147 26 22.4138 26 21.1951V6.60978C26 5.39114 24.9991 4.39027 23.7805 4.39027H22.1951V1.21953C22.1951 0.887496 21.893 0.58542 21.561 0.585388H2.53659ZM2.53659 1.85368H20.9268V4.39027H2.53659C1.82298 4.39027 1.26829 3.83558 1.26829 3.12197C1.26829 2.40837 1.82298 1.85368 2.53659 1.85368ZM1.26829 5.31174C1.64209 5.52944 2.07543 5.65856 2.53659 5.65856C9.67837 5.65222 17.6421 5.65856 23.7805 5.65856C24.3184 5.65856 24.7317 6.07183 24.7317 6.60978V10.4147H15.5366C14.6693 10.4147 13.9512 11.1327 13.9512 12V15.8049C13.9512 16.6722 14.6693 17.3903 15.5366 17.3903H24.7317V21.1951C24.7317 21.7331 24.3184 22.1464 23.7805 22.1464H2.21951C1.68157 22.1464 1.26829 21.7331 1.26829 21.1951V5.31174ZM15.5366 11.6829H24.7317V16.122H15.5366C15.35 16.122 15.2195 15.9915 15.2195 15.8049V12C15.2195 11.8134 15.35 11.6826 15.5366 11.6829ZM18.7073 12.6342C18.0069 12.6342 17.439 13.202 17.439 13.9025C17.439 14.6029 18.0069 15.1708 18.7073 15.1708C19.4078 15.1708 19.9756 14.6029 19.9756 13.9025C19.9756 13.202 19.4078 12.6342 18.7073 12.6342Z" fill="#A6A9B3"/>
</svg>
